<svg id="Layer_1" data-name="Layer 1" xmlns="http://www.w3.org/2000/svg" viewBox="0 0 519.96 64.12"><defs><style>.cls-1{fill:#fff;}</style></defs><path class="cls-1" d="M284.28,531.54H280l-1.86-2.75h-4.93l-.45,2.75h-3.21l.87-5.31h9a2.64,2.64,0,0,0,1.31-.31,1.19,1.19,0,0,0,.65-.85.85.85,0,0,0-.32-.91,2.11,2.11,0,0,0-1.25-.3h-9l2.54-2.7H280a10.31,10.31,0,0,1,1.81.16,4.8,4.8,0,0,1,1.62.58,2.85,2.85,0,0,1,1.09,1.14,2.82,2.82,0,0,1,.21,1.83,4.14,4.14,0,0,1-.38,1.14,3.58,3.58,0,0,1-.7,1,4,4,0,0,1-1,.74,4,4,0,0,1-1.21.42,6.42,6.42,0,0,1,.5.52c.19.2.43.49.73.85Z" transform="translate(-240.02 -467.94)"/><path class="cls-1" d="M299.47,528.87l-2.5,2.67H287l1.71-10.38h12l-2.52,2.7h-6.72l-.21,1.24h8.23l-2.24,2.36h-6.37l-.24,1.41Z" transform="translate(-240.02 -467.94)"/><path class="cls-1" d="M312.17,531.71a1.73,1.73,0,0,1-.6-.11,1.42,1.42,0,0,1-.6-.45l-5.41-5.71-1,6.1h-2.92l1.42-8.61a2.83,2.83,0,0,1,.3-.89,2.11,2.11,0,0,1,.48-.6,1.8,1.8,0,0,1,.62-.34,2,2,0,0,1,.68-.11,1.69,1.69,0,0,1,.58.1,1.65,1.65,0,0,1,.61.46l5.42,5.7,1-6.09h2.93l-1.42,8.59a2.82,2.82,0,0,1-.29.89,2.31,2.31,0,0,1-.49.61,1.78,1.78,0,0,1-.63.35A2.25,2.25,0,0,1,312.17,531.71Z" transform="translate(-240.02 -467.94)"/><path class="cls-1" d="M332,521.16l-2.52,2.7h-3.71l-1.27,7.68H321.3l1.27-7.68H317.7l2.52-2.7Z" transform="translate(-240.02 -467.94)"/><path class="cls-1" d="M333.94,531.54l2.38-2.67h3.58c.33,0,.63,0,.87,0-.11-.19-.24-.42-.39-.71s-.28-.55-.42-.8l-1.41-2.74-6,6.89h-3.8l8.2-9.39a4.52,4.52,0,0,1,1-.81,2.39,2.39,0,0,1,1.31-.35,1.86,1.86,0,0,1,1.16.33,2.56,2.56,0,0,1,.7.83l4.93,9.39Z" transform="translate(-240.02 -467.94)"/><path class="cls-1" d="M360.4,528.87l-2.52,2.67h-9.17l1.71-10.38h3.21l-1.27,7.71Z" transform="translate(-240.02 -467.94)"/><path class="cls-1" d="M390.74,521.16l-2.53,2.7H384.5l-1.26,7.68H380l1.26-7.68h-4.87l2.53-2.7Z" transform="translate(-240.02 -467.94)"/><path class="cls-1" d="M405.23,531.54h-4.29l-1.86-2.75h-4.93l-.46,2.75h-3.21l.88-5.31h9a2.62,2.62,0,0,0,1.31-.31,1.17,1.17,0,0,0,.65-.85.84.84,0,0,0-.31-.91,2.16,2.16,0,0,0-1.25-.3h-9l2.54-2.7H401a10.12,10.12,0,0,1,1.8.16,4.85,4.85,0,0,1,1.63.58,2.91,2.91,0,0,1,1.09,1.14,2.82,2.82,0,0,1,.2,1.83,3.81,3.81,0,0,1-.37,1.14,4.06,4.06,0,0,1-.7,1,4,4,0,0,1-2.18,1.16,6.42,6.42,0,0,1,.5.52c.18.2.43.49.73.85Z" transform="translate(-240.02 -467.94)"/><path class="cls-1" d="M412.32,531.54l2.38-2.67h3.58q.5,0,.87,0a7.09,7.09,0,0,1-.39-.71c-.15-.28-.28-.55-.42-.8l-1.41-2.74-6,6.89h-3.8l8.2-9.39a4.46,4.46,0,0,1,.95-.81,2.45,2.45,0,0,1,1.32-.35,1.88,1.88,0,0,1,1.16.33,2.42,2.42,0,0,1,.69.83l4.94,9.39Z" transform="translate(-240.02 -467.94)"/><path class="cls-1" d="M437.58,531.71a1.73,1.73,0,0,1-.6-.11,1.42,1.42,0,0,1-.6-.45L431,525.44l-1,6.1H427l1.42-8.61a2.82,2.82,0,0,1,.29-.89,2.14,2.14,0,0,1,.49-.6,1.72,1.72,0,0,1,.62-.34,2,2,0,0,1,.67-.11,1.65,1.65,0,0,1,.58.1,1.67,1.67,0,0,1,.62.46l5.42,5.7,1-6.09h2.93l-1.41,8.59a2.83,2.83,0,0,1-.3.89,2.49,2.49,0,0,1-.48.61,1.78,1.78,0,0,1-.63.35A2.35,2.35,0,0,1,437.58,531.71Z" transform="translate(-240.02 -467.94)"/><path class="cls-1" d="M453.46,525.3a4.4,4.4,0,0,1,2.79.71,2.11,2.11,0,0,1,.64,2.13,4.4,4.4,0,0,1-.49,1.43,3.16,3.16,0,0,1-1,1.07,4.7,4.7,0,0,1-1.5.66,7.93,7.93,0,0,1-2.06.24h-9.67l2.5-2.67h7.85a1.69,1.69,0,0,0,.87-.18.76.76,0,0,0,.36-.58.56.56,0,0,0-.17-.58,1.48,1.48,0,0,0-.81-.17h-5.64a6,6,0,0,1-1.71-.21,2.94,2.94,0,0,1-1.11-.61,2,2,0,0,1-.56-.94,3.08,3.08,0,0,1,0-1.22,3.73,3.73,0,0,1,.48-1.32,3.1,3.1,0,0,1,1-1,4.7,4.7,0,0,1,1.48-.65,8.44,8.44,0,0,1,2.07-.23h9l-2.51,2.7h-7.2a1.93,1.93,0,0,0-.85.15.74.74,0,0,0-.37.56.54.54,0,0,0,.18.57,1.52,1.52,0,0,0,.81.16Z" transform="translate(-240.02 -467.94)"/><path class="cls-1" d="M474.07,525.05a4,4,0,0,1-1.8,2.78,5.83,5.83,0,0,1-1.73.77,8,8,0,0,1-2.2.28h-5.43l-.44,2.66h-3.2l.88-5.31h8.93a2,2,0,0,0,1.21-.33,1.26,1.26,0,0,0,.56-.86.9.9,0,0,0-.27-.87,1.65,1.65,0,0,0-1.11-.31h-8.93l2.57-2.7h6.51a6.68,6.68,0,0,1,2.11.29,4,4,0,0,1,1.47.79,2.75,2.75,0,0,1,.79,1.23A3.31,3.31,0,0,1,474.07,525.05Z" transform="translate(-240.02 -467.94)"/><path class="cls-1" d="M485.18,521c2.52,0,4.35.43,5.47,1.29s1.54,2.21,1.23,4.06a5.55,5.55,0,0,1-2.56,4.08,11.37,11.37,0,0,1-5.91,1.29q-3.81,0-5.49-1.29c-1.11-.86-1.52-2.22-1.21-4.08a5.54,5.54,0,0,1,2.56-4.06A11.34,11.34,0,0,1,485.18,521Zm-1.32,8a19.82,19.82,0,0,0,2.06-.1,4.12,4.12,0,0,0,1.42-.4,2.25,2.25,0,0,0,.89-.81,4,4,0,0,0,.46-1.36,3.39,3.39,0,0,0,0-1.36,1.42,1.42,0,0,0-.62-.81,3.23,3.23,0,0,0-1.3-.38,16.41,16.41,0,0,0-2-.1,17.39,17.39,0,0,0-2.06.1,4.13,4.13,0,0,0-1.42.38,2.32,2.32,0,0,0-.89.81,3.81,3.81,0,0,0-.45,1.36,3.06,3.06,0,0,0,0,1.36,1.37,1.37,0,0,0,.61.81,3.22,3.22,0,0,0,1.3.4A18.64,18.64,0,0,0,483.86,529Z" transform="translate(-240.02 -467.94)"/><path class="cls-1" d="M508.93,531.54h-4.3l-1.86-2.75h-4.93l-.46,2.75h-3.21l.88-5.31h9a2.6,2.6,0,0,0,1.3-.31,1.18,1.18,0,0,0,.66-.85.86.86,0,0,0-.32-.91,2.13,2.13,0,0,0-1.25-.3h-9l2.54-2.7h6.67a10.12,10.12,0,0,1,1.8.16,4.85,4.85,0,0,1,1.63.58,2.91,2.91,0,0,1,1.09,1.14,2.76,2.76,0,0,1,.2,1.83A3.81,3.81,0,0,1,509,526a4.06,4.06,0,0,1-.7,1,4,4,0,0,1-1,.74,4.13,4.13,0,0,1-1.21.42,6.42,6.42,0,0,1,.5.52c.18.2.43.49.73.85Z" transform="translate(-240.02 -467.94)"/><path class="cls-1" d="M526.22,521.16l-2.52,2.7H520l-1.26,7.68h-3.21l1.26-7.68h-4.87l2.53-2.7Z" transform="translate(-240.02 -467.94)"/><path class="cls-1" d="M543.28,531.54l2.38-2.67h3.58q.5,0,.87,0a7.09,7.09,0,0,1-.39-.71c-.15-.28-.28-.55-.42-.8l-1.41-2.74-6,6.89h-3.8l8.2-9.39a4.46,4.46,0,0,1,1-.81,2.45,2.45,0,0,1,1.32-.35,1.88,1.88,0,0,1,1.16.33,2.42,2.42,0,0,1,.69.83l4.94,9.39Z" transform="translate(-240.02 -467.94)"/><path class="cls-1" d="M568.54,531.71a1.73,1.73,0,0,1-.6-.11,1.42,1.42,0,0,1-.6-.45l-5.42-5.71-1,6.1H558l1.42-8.61a2.82,2.82,0,0,1,.29-.89,2.14,2.14,0,0,1,.49-.6,1.72,1.72,0,0,1,.62-.34,2,2,0,0,1,.67-.11,1.65,1.65,0,0,1,.58.1,1.67,1.67,0,0,1,.62.46l5.42,5.7,1-6.09H572l-1.41,8.59a2.83,2.83,0,0,1-.3.89,2.49,2.49,0,0,1-.48.61,1.78,1.78,0,0,1-.63.35A2.35,2.35,0,0,1,568.54,531.71Z" transform="translate(-240.02 -467.94)"/><path class="cls-1" d="M587.85,526.25a5.58,5.58,0,0,1-.82,2.1,6.59,6.59,0,0,1-1.58,1.67,7.6,7.6,0,0,1-2.16,1.11,8,8,0,0,1-2.56.41h-7l1.06-6.47h3.23l-.63,3.8h3.73a4.36,4.36,0,0,0,1.26-.18,3.42,3.42,0,0,0,1.05-.51,2.86,2.86,0,0,0,.77-.78,2.71,2.71,0,0,0,.4-1,2.11,2.11,0,0,0-.07-1,1.85,1.85,0,0,0-.52-.8,2.7,2.7,0,0,0-.89-.53,3.36,3.36,0,0,0-1.18-.19h-7l2.5-2.7h4.9a7.5,7.5,0,0,1,2.45.37,5,5,0,0,1,1.8,1.05,3.72,3.72,0,0,1,1,1.61A4.27,4.27,0,0,1,587.85,526.25Z" transform="translate(-240.02 -467.94)"/><path class="cls-1" d="M602,531.54l2.38-2.67H608q.51,0,.87,0c-.11-.19-.24-.42-.38-.71l-.42-.8-1.41-2.74-6,6.89h-3.8l8.2-9.39a4.78,4.78,0,0,1,1-.81,2.44,2.44,0,0,1,1.31-.35,1.89,1.89,0,0,1,1.17.33,2.54,2.54,0,0,1,.69.83l4.94,9.39Z" transform="translate(-240.02 -467.94)"/><path class="cls-1" d="M627.45,525.3a4.35,4.35,0,0,1,2.78.71,2.07,2.07,0,0,1,.64,2.13,4.17,4.17,0,0,1-.48,1.43,3.19,3.19,0,0,1-1,1.07,4.74,4.74,0,0,1-1.49.66,8,8,0,0,1-2.07.24H616.2l2.5-2.67h7.85a1.71,1.71,0,0,0,.87-.18.82.82,0,0,0,.36-.58.56.56,0,0,0-.17-.58,1.48,1.48,0,0,0-.81-.17h-5.65a5.93,5.93,0,0,1-1.7-.21,2.94,2.94,0,0,1-1.11-.61,1.93,1.93,0,0,1-.56-.94,3.08,3.08,0,0,1,0-1.22,3.73,3.73,0,0,1,.48-1.32,3.18,3.18,0,0,1,.95-1,4.86,4.86,0,0,1,1.49-.65,8.42,8.42,0,0,1,2.06-.23h9l-2.51,2.7H622a1.9,1.9,0,0,0-.85.15.74.74,0,0,0-.37.56.54.54,0,0,0,.18.57,1.48,1.48,0,0,0,.8.16Z" transform="translate(-240.02 -467.94)"/><path class="cls-1" d="M643.94,525.3a4.35,4.35,0,0,1,2.78.71,2.07,2.07,0,0,1,.64,2.13,4.17,4.17,0,0,1-.48,1.43,3.3,3.3,0,0,1-1,1.07,4.7,4.7,0,0,1-1.5.66,7.88,7.88,0,0,1-2.06.24h-9.66l2.5-2.67H643a1.71,1.71,0,0,0,.87-.18.82.82,0,0,0,.36-.58.58.58,0,0,0-.17-.58,1.48,1.48,0,0,0-.81-.17h-5.65a5.93,5.93,0,0,1-1.7-.21,2.94,2.94,0,0,1-1.11-.61,1.93,1.93,0,0,1-.56-.94,3.08,3.08,0,0,1,0-1.22,3.92,3.92,0,0,1,.47-1.32,3.33,3.33,0,0,1,1-1,4.76,4.76,0,0,1,1.49-.65,8.42,8.42,0,0,1,2.06-.23h9l-2.5,2.7h-7.2a2,2,0,0,0-.86.15.73.73,0,0,0-.36.56.54.54,0,0,0,.18.57,1.48,1.48,0,0,0,.8.16Z" transform="translate(-240.02 -467.94)"/><path class="cls-1" d="M662.27,528.87l-2.5,2.67h-10l1.71-10.38h12l-2.52,2.7h-6.72l-.2,1.24h8.22l-2.23,2.36h-6.38l-.23,1.41Z" transform="translate(-240.02 -467.94)"/><path class="cls-1" d="M672.73,525l.42,1.06.31.82c.09.24.17.45.24.65s.13.39.19.57c.11-.18.23-.37.36-.56l.45-.65c.17-.25.37-.52.59-.82l.77-1.05,2.14-2.95a3,3,0,0,1,.84-.8,2.05,2.05,0,0,1,1.11-.3,1.56,1.56,0,0,1,1,.35,1.59,1.59,0,0,1,.53,1.07l1.12,9.13h-3.2l-.38-3.62c-.07-.59-.12-1.11-.16-1.55s-.07-.88-.08-1.3l-.79,1.2c-.29.44-.67,1-1.13,1.67l-1.83,2.6a3.07,3.07,0,0,1-.51.62,2.36,2.36,0,0,1-.48.34,1.51,1.51,0,0,1-.49.17,4.74,4.74,0,0,1-.55,0,4.26,4.26,0,0,1-.54,0,1.12,1.12,0,0,1-.44-.17,1.66,1.66,0,0,1-.37-.34,2.38,2.38,0,0,1-.31-.62l-1-2.62c-.13-.35-.24-.67-.34-.95l-.27-.75c-.09-.22-.15-.42-.21-.61s-.12-.37-.17-.54q-.23.61-.51,1.29l-.66,1.56-1.57,3.62h-3.15l4.19-9.13a2.39,2.39,0,0,1,.89-1.07A2.07,2.07,0,0,1,670,521a1.65,1.65,0,0,1,1,.29,1.86,1.86,0,0,1,.57.81Z" transform="translate(-240.02 -467.94)"/><path class="cls-1" d="M698.16,526.2a1.82,1.82,0,0,1,1,.79,2.08,2.08,0,0,1,.22,1.52,3.69,3.69,0,0,1-.4,1.2,2.73,2.73,0,0,1-.84,1,4,4,0,0,1-1.4.63,7.69,7.69,0,0,1-2.07.24h-9.12l1-6.32h9.18a1.41,1.41,0,0,0,.65-.15.66.66,0,0,0,.36-.55.44.44,0,0,0-.19-.52,1.16,1.16,0,0,0-.6-.14h-9.18l2.62-2.7h6.87a6.83,6.83,0,0,1,1.65.18,3.32,3.32,0,0,1,1.2.54,1.91,1.91,0,0,1,.67.9,2.43,2.43,0,0,1,.09,1.25,3.16,3.16,0,0,1-.26.82,3.32,3.32,0,0,1-.43.63,2.44,2.44,0,0,1-.52.45A2.6,2.6,0,0,1,698.16,526.2Zm-8.69,1.24-.24,1.43h5.91a1.39,1.39,0,0,0,.79-.19.73.73,0,0,0,.32-.54.53.53,0,0,0-.14-.52,1.13,1.13,0,0,0-.73-.18Z" transform="translate(-240.02 -467.94)"/><path class="cls-1" d="M713.75,528.87l-2.51,2.67h-9.17l1.71-10.38H707l-1.27,7.71Z" transform="translate(-240.02 -467.94)"/><path class="cls-1" d="M728.71,521.16l-7.31,7-.56,3.43h-3.23l.57-3.45L713,521.16h4.13l2,2.88c.06.1.15.22.26.37l.34.47.33.47c.1.14.17.25.21.32l.55-.59c.23-.25.58-.6,1-1.05l2.83-2.87Z" transform="translate(-240.02 -467.94)"/><path class="cls-1" d="M297.67,511.91H280.88l-7.4-10.73H254.2l-1.63,10.73H240l3.15-20.73h35.29a10.3,10.3,0,0,0,5.09-1.22,4.5,4.5,0,0,0,2.51-3.33,3.4,3.4,0,0,0-1.28-3.55,8.44,8.44,0,0,0-4.91-1.18H244.58l9.79-10.55h26.07a41,41,0,0,1,7.06.64,19,19,0,0,1,6.38,2.27,11.58,11.58,0,0,1,4.33,4.43,11.11,11.11,0,0,1,.88,7.15,15.26,15.26,0,0,1-1.41,4.49,15.43,15.43,0,0,1-2.67,3.82,15.63,15.63,0,0,1-3.77,2.88,15.79,15.79,0,0,1-4.71,1.66,26.8,26.8,0,0,1,2,2q1.08,1.21,2.88,3.34Z" transform="translate(-240.02 -467.94)"/><path class="cls-1" d="M357.53,494.21q-2.79,18.36-28.07,18.37A57.25,57.25,0,0,1,317,511.42a21.18,21.18,0,0,1-8.17-3.45,11.34,11.34,0,0,1-4.16-5.73,17.71,17.71,0,0,1-.39-8l3.48-22.86h12.49l-3.48,22.86a9.72,9.72,0,0,0,0,3.76,3.93,3.93,0,0,0,1.9,2.45,11.67,11.67,0,0,0,4.49,1.34,62.65,62.65,0,0,0,7.82.39,37.65,37.65,0,0,0,6.13-.42,11.75,11.75,0,0,0,4.09-1.4,6.9,6.9,0,0,0,2.47-2.48,10.33,10.33,0,0,0,1.19-3.64l3.48-22.86H361Z" transform="translate(-240.02 -467.94)"/><path class="cls-1" d="M410.87,491.06a7.23,7.23,0,0,1,4.05,3.09,8.3,8.3,0,0,1,.94,5.94,15.22,15.22,0,0,1-1.5,4.7,11,11,0,0,1-3.24,3.73,16.24,16.24,0,0,1-5.44,2.48,30.9,30.9,0,0,1-8.11.91H361.93l3.75-24.67h35.89a5.49,5.49,0,0,0,2.54-.58,2.65,2.65,0,0,0,1.39-2.15,1.77,1.77,0,0,0-.78-2.06,4.76,4.76,0,0,0-2.34-.55H366.49l10.1-10.55h26.85a27.4,27.4,0,0,1,6.47.7,12.79,12.79,0,0,1,4.71,2.12,8,8,0,0,1,2.68,3.52,9.58,9.58,0,0,1,.38,4.88,10.79,10.79,0,0,1-1,3.21,11.75,11.75,0,0,1-1.61,2.46,9,9,0,0,1-2,1.75A10.27,10.27,0,0,1,410.87,491.06ZM377,495.91l-.85,5.57h23.1a5.37,5.37,0,0,0,3.08-.72,3.06,3.06,0,0,0,1.23-2.13,2.08,2.08,0,0,0-.6-2,4.46,4.46,0,0,0-2.86-.69Z" transform="translate(-240.02 -467.94)"/><path class="cls-1" d="M469.06,501.48l-9.65,10.43h-39l6.17-40.56h47l-9.73,10.55H437.54l-.74,4.85h32.13L460.32,496H435.4l-.84,5.51Z" transform="translate(-240.02 -467.94)"/><path class="cls-1" d="M529.3,511.91H512.51l-7.4-10.73H485.83l-1.63,10.73H471.65l3.16-20.73h35.28a10.28,10.28,0,0,0,5.09-1.22,4.48,4.48,0,0,0,2.51-3.33,3.38,3.38,0,0,0-1.28-3.55,8.44,8.44,0,0,0-4.91-1.18H476.22L486,471.35h26.06a40.91,40.91,0,0,1,7.06.64,18.88,18.88,0,0,1,6.38,2.27,11.51,11.51,0,0,1,4.33,4.43,11,11,0,0,1,.88,7.15,15.26,15.26,0,0,1-1.41,4.49,15.43,15.43,0,0,1-2.67,3.82,15.59,15.59,0,0,1-8.48,4.54,25,25,0,0,1,2,2c.72.81,1.69,1.92,2.89,3.34Z" transform="translate(-240.02 -467.94)"/><path class="cls-1" d="M544.26,471.35l-9.72,10.55h19l-4.57,30h12.55L564.74,491l-3.47-.45a3.71,3.71,0,0,1,0-7.36l4.75-.61.1-.66h4.57a4.63,4.63,0,0,1-.06-.67,3.71,3.71,0,0,1,3.25-3.67L586.06,476l4.27-4.65Z" transform="translate(-240.02 -467.94)"/><path class="cls-1" d="M678.27,486.84a2.44,2.44,0,0,1,0-.27H675.5l-8.89,9h21l-.89,5.88H671.36a14.89,14.89,0,0,1-4.7-.69,10,10,0,0,1-3.48-2,7.18,7.18,0,0,1-2-3.07,8.23,8.23,0,0,1-.27-4,9.78,9.78,0,0,1,1.51-4,12.11,12.11,0,0,1,3-3.12,13.85,13.85,0,0,1,4.1-2.06,16.11,16.11,0,0,1,4.84-.73h16.6a4.63,4.63,0,0,1-.06-.67,3.71,3.71,0,0,1,3.25-3.67l5.82-.75,5-5.46h-29a34.23,34.23,0,0,0-10,1.43,28.08,28.08,0,0,0-8.35,4.06,23.86,23.86,0,0,0-6.05,6.31,19.92,19.92,0,0,0-3.08,8.09,17.25,17.25,0,0,0,.6,8.21,16.19,16.19,0,0,0,4.1,6.55,19.47,19.47,0,0,0,7.07,4.33,27.2,27.2,0,0,0,9.52,1.58h27.82L700.47,493l-19-2.45A3.71,3.71,0,0,1,678.27,486.84Z" transform="translate(-240.02 -467.94)"/><path class="cls-1" d="M598.63,502.08,583.44,499,596,496.33l-.79-5.17-33.46-4.31,26.62-3.4v-.38l-14-1.83,24.33-3.13c9.37-13,25.21-12.59,34.1-4.1a22.21,22.21,0,0,1,.09,32.21C623.33,515.23,607.37,514.66,598.63,502.08ZM601.8,490a15.76,15.76,0,1,0,15.91-15.56A15.51,15.51,0,0,0,601.8,490Z" transform="translate(-240.02 -467.94)"/><path class="cls-1" d="M718.87,502.08,703.68,499l12.55-2.67-.79-5.17L682,486.85l26.61-3.4v-.38l-14-1.83,24.33-3.13c9.37-13,25.21-12.59,34.11-4.1a22.22,22.22,0,0,1,.08,32.21C743.57,515.23,727.61,514.66,718.87,502.08ZM722,490A15.76,15.76,0,1,0,738,474.42,15.51,15.51,0,0,0,722,490Z" transform="translate(-240.02 -467.94)"/><path class="cls-1" d="M617.87,475.91a14.32,14.32,0,1,0,14,14.17A14.34,14.34,0,0,0,617.87,475.91Zm9.64,9.36a.69.69,0,0,1,1,.33,17.29,17.29,0,0,1,.62,1.84,9,9,0,0,1,.22,1c.14.73-.21,1.15-1,1.11l-1.94-.09v0l-2.71-.15a.83.83,0,0,1-.79-.59.75.75,0,0,1,.39-.82l3.9-2.52A1.46,1.46,0,0,1,627.51,485.27Zm-3.8-4.37a.63.63,0,0,1,1-.16c.53.43,1,.9,1.54,1.37a8.72,8.72,0,0,1,.74.87,2.17,2.17,0,0,1,.21.44.81.81,0,0,1-.35.66l-1,.55-3.19,1.65a1.69,1.69,0,0,1-.47.18.67.67,0,0,1-.82-.93c.22-.55.51-1.07.78-1.59l1.42-2.78A2.2,2.2,0,0,1,623.71,480.9Zm-4.57-2.45a13.87,13.87,0,0,1,1.66.32,10.11,10.11,0,0,1,1.27.45.74.74,0,0,1,.35,1.2L620,484.28a2,2,0,0,1-.25.33.7.7,0,0,1-1.22-.25,1.85,1.85,0,0,1-.08-.46l-.18-4h0c0-.17,0-.34,0-.51C618.18,478.72,618.53,478.37,619.14,478.45Zm.7,11.08a.65.65,0,0,1,1.23-.44.66.66,0,0,1-.4.84A.65.65,0,0,1,619.84,489.53Zm0,3.74a.65.65,0,1,1,.09-.92A.65.65,0,0,1,619.82,493.27Zm-2.27-6.76a.67.67,0,0,1,.66.66.66.66,0,0,1-.66.65.65.65,0,0,1-.65-.65A.66.66,0,0,1,617.55,486.51Zm-4.4-7.34a11.34,11.34,0,0,1,2.61-.71,2.07,2.07,0,0,1,.43,0,.71.71,0,0,1,.72.73v.43h0l-.18,4.1a5.14,5.14,0,0,1-.06.55.72.72,0,0,1-.54.59.68.68,0,0,1-.72-.25,9.13,9.13,0,0,1-.62-.91c-.7-1.08-1.39-2.16-2.06-3.25C612.33,479.84,612.51,479.44,613.15,479.17Zm3,13.21a.64.64,0,0,1,.22.89.65.65,0,0,1-.89.23.66.66,0,0,1-.23-.9A.65.65,0,0,1,616.14,492.38Zm-1.07-2.65a.65.65,0,1,1-.51-.77A.66.66,0,0,1,615.07,489.73Zm-6.76-7a11.78,11.78,0,0,1,2-1.94.67.67,0,0,1,1.14.17,1.1,1.1,0,0,1,.14.21l2,3.95a3.3,3.3,0,0,1,.19.43.72.72,0,0,1-.71.94,4.4,4.4,0,0,1-.51-.18c-1.31-.66-2.61-1.33-3.91-2l0,0C607.78,483.83,607.73,483.5,608.31,482.75Zm-2,3.53a4.86,4.86,0,0,1,.25-.63.75.75,0,0,1,1.1-.34c.25.13.49.28.73.43l3.39,2.22a.74.74,0,0,1,.38.78.76.76,0,0,1-.77.61l-2.74.16c-.68,0-1.35.06-2,.07s-.87-.27-.86-.94A12.29,12.29,0,0,1,606.34,486.28Zm.38,8.75a1.3,1.3,0,0,1-.25-.48c-.23-.82-.44-1.64-.65-2.46a1.67,1.67,0,0,1,0-.5.74.74,0,0,1,.76-.7h1v.06l3.81.2a1.06,1.06,0,0,1,.25,0,.74.74,0,0,1,.59.54.66.66,0,0,1-.24.72c-.31.24-.65.45-1,.67l-2.51,1.64-.8.48A.63.63,0,0,1,606.72,495Zm4.08,4.88a3.18,3.18,0,0,1-.53-.24,11,11,0,0,1-2.16-2.2c-.33-.45-.22-.86.3-1.15s1.1-.57,1.65-.86c.89-.46,1.77-.93,2.67-1.37a.67.67,0,0,1,1,.33.8.8,0,0,1,0,.53,10.64,10.64,0,0,1-.48,1c-.56,1.11-1.13,2.21-1.7,3.31A.93.93,0,0,1,610.8,499.91Zm6.11,1.29a.8.8,0,0,1-1,.86c-.84-.19-1.67-.42-2.5-.63l-.19-.08c-.66-.29-.86-.73-.44-1.38s.77-1.21,1.16-1.82.88-1.37,1.33-2a1.43,1.43,0,0,1,.28-.32.66.66,0,0,1,1.07.29,2.61,2.61,0,0,1,.13.74c0,.91.07,1.83.11,2.75,0,.46.06.92.09,1.39h0Zm-.94-10h0a1.79,1.79,0,0,1,.13-2.11l.09-.1a1.7,1.7,0,0,1,1.71-.6,1.89,1.89,0,0,1,1.51,1.59,1.79,1.79,0,0,1-.79,1.8A1.83,1.83,0,0,1,616,491.21Zm6.09,10.05a14.64,14.64,0,0,1-1.84.6c-.31.09-.63.14-1,.2a.84.84,0,0,1-1.08-.93c0-.17,0-.34,0-.51h0c.06-1.29.11-2.57.17-3.85a5.73,5.73,0,0,1,.07-.58.69.69,0,0,1,.56-.57.67.67,0,0,1,.73.31c.2.27.39.56.57.84.69,1.08,1.38,2.16,2.06,3.25C622.75,500.59,622.67,501,622.06,501.26Zm4.87-3.68a12.55,12.55,0,0,1-2.06,2.06.76.76,0,0,1-1.29-.27l-2.07-4a3.2,3.2,0,0,1-.17-.43.71.71,0,0,1,.17-.78.69.69,0,0,1,.79-.14c.22.09.43.21.64.32,1.07.55,2.14,1.09,3.2,1.65.24.12.47.26.7.39a.77.77,0,0,1,.34.68A2.58,2.58,0,0,1,626.93,497.58Zm2.41-5.76a9.62,9.62,0,0,1-.22,1.17c-.14.53-.3,1.05-.47,1.57a1.44,1.44,0,0,1-.21.41.66.66,0,0,1-1,.21l-3.81-2.43a2.46,2.46,0,0,1-.44-.34.68.68,0,0,1,.2-1.19,1.7,1.7,0,0,1,.46-.08l3.88-.2v0c.26,0,.51,0,.77,0A.78.78,0,0,1,629.34,491.82Z" transform="translate(-240.02 -467.94)"/><path class="cls-1" d="M738.11,475.91a14.32,14.32,0,1,0,14,14.17A14.34,14.34,0,0,0,738.11,475.91Zm9.64,9.36a.69.69,0,0,1,1,.33c.25.6.44,1.22.63,1.84.1.33.14.69.21,1,.14.73-.21,1.15-1,1.11l-1.94-.09v0l-2.71-.15a.83.83,0,0,1-.79-.59.75.75,0,0,1,.39-.82l3.9-2.52A1.46,1.46,0,0,1,747.75,485.27ZM744,480.9a.63.63,0,0,1,1-.16c.53.43,1,.9,1.54,1.37a8.72,8.72,0,0,1,.74.87,1.74,1.74,0,0,1,.21.44.78.78,0,0,1-.35.66l-1,.55-3.19,1.65a1.69,1.69,0,0,1-.47.18.67.67,0,0,1-.82-.93c.22-.55.51-1.07.78-1.59l1.42-2.78A2.2,2.2,0,0,1,744,480.9Zm-4.57-2.45a13.87,13.87,0,0,1,1.66.32,10.11,10.11,0,0,1,1.27.45.74.74,0,0,1,.35,1.2l-2.44,3.86a2,2,0,0,1-.25.33.7.7,0,0,1-1.22-.25,1.85,1.85,0,0,1-.08-.46l-.18-4h0c0-.17,0-.34,0-.51C738.42,478.72,738.77,478.37,739.38,478.45Zm.7,11.08a.65.65,0,0,1,1.23-.44.66.66,0,0,1-.4.84A.65.65,0,0,1,740.08,489.53Zm0,3.74a.65.65,0,1,1,.09-.92A.65.65,0,0,1,740.06,493.27Zm-2.26-6.76a.66.66,0,0,1,.65.66.65.65,0,0,1-.65.65.66.66,0,0,1-.66-.65A.67.67,0,0,1,737.8,486.51Zm-4.41-7.34a11.34,11.34,0,0,1,2.61-.71,2.07,2.07,0,0,1,.43,0,.71.71,0,0,1,.72.73c0,.14,0,.29,0,.43h0l-.18,4.1a5.14,5.14,0,0,1-.06.55.72.72,0,0,1-.54.59.68.68,0,0,1-.72-.25c-.22-.29-.43-.6-.62-.91-.7-1.08-1.39-2.16-2.06-3.25C732.57,479.84,732.75,479.44,733.39,479.17Zm3,13.21a.64.64,0,0,1,.22.89.65.65,0,1,1-1.11-.67A.64.64,0,0,1,736.38,492.38Zm-1.07-2.65a.65.65,0,0,1-1.28-.26.65.65,0,0,1,1.28.26Zm-6.75-7a11.08,11.08,0,0,1,2-1.94c.46-.37.79-.32,1.14.17a1.07,1.07,0,0,1,.13.21l2,3.95a3.25,3.25,0,0,1,.18.43.72.72,0,0,1-.71.94,4.4,4.4,0,0,1-.51-.18l-3.91-2,0,0C728,483.83,728,483.5,728.56,482.75Zm-2,3.53a4.86,4.86,0,0,1,.25-.63.75.75,0,0,1,1.1-.34c.25.13.49.28.73.43l3.39,2.22a.74.74,0,0,1,.38.78.76.76,0,0,1-.77.61l-2.74.16c-.68,0-1.35.06-2,.07s-.87-.27-.86-.94A12.29,12.29,0,0,1,726.58,486.28ZM727,495a1.3,1.3,0,0,1-.25-.48c-.23-.82-.44-1.64-.65-2.46a1.67,1.67,0,0,1,0-.5.74.74,0,0,1,.76-.7h1v.06l3.81.2a1.06,1.06,0,0,1,.25,0,.77.77,0,0,1,.6.54.68.68,0,0,1-.25.72c-.31.24-.65.45-1,.67l-2.51,1.64-.8.48A.63.63,0,0,1,727,495Zm4.08,4.88a3.08,3.08,0,0,1-.52-.24,10.48,10.48,0,0,1-2.16-2.2c-.34-.45-.23-.86.29-1.15s1.1-.57,1.65-.86c.89-.46,1.77-.93,2.67-1.37a.67.67,0,0,1,1,.33.8.8,0,0,1,0,.53,10.64,10.64,0,0,1-.48,1c-.56,1.11-1.13,2.21-1.7,3.31A.93.93,0,0,1,731,499.91Zm6.11,1.29a.8.8,0,0,1-1,.86c-.84-.19-1.66-.42-2.5-.63l-.19-.08c-.65-.29-.86-.73-.44-1.38s.77-1.21,1.16-1.82.88-1.37,1.33-2a1.43,1.43,0,0,1,.28-.32.66.66,0,0,1,1.07.29,2.61,2.61,0,0,1,.13.74c0,.91.07,1.83.11,2.75,0,.46.06.92.09,1.39h0Zm-.94-10h0a1.79,1.79,0,0,1,.13-2.11l.09-.1a1.7,1.7,0,0,1,1.71-.6,1.89,1.89,0,0,1,1.51,1.59,1.79,1.79,0,0,1-.79,1.8A1.83,1.83,0,0,1,736.21,491.21Zm6.09,10.05a14.64,14.64,0,0,1-1.84.6c-.31.09-.63.14-1,.2a.84.84,0,0,1-1.08-.93c0-.17,0-.34,0-.51h0c.06-1.29.11-2.57.17-3.85a5.73,5.73,0,0,1,.07-.58.71.71,0,0,1,1.3-.26c.19.27.38.56.56.84.69,1.08,1.38,2.16,2.06,3.25C743,500.59,742.91,501,742.3,501.26Zm4.87-3.68a12.55,12.55,0,0,1-2.06,2.06.76.76,0,0,1-1.29-.27l-2.07-4a3.2,3.2,0,0,1-.17-.43.71.71,0,0,1,.17-.78.69.69,0,0,1,.79-.14c.22.09.43.21.65.32,1.06.55,2.13,1.09,3.19,1.65.24.12.47.26.7.39a.77.77,0,0,1,.34.68A2.11,2.11,0,0,1,747.17,497.58Zm2.41-5.76a8,8,0,0,1-.22,1.17c-.13.53-.3,1.05-.47,1.57a1.23,1.23,0,0,1-.21.41.66.66,0,0,1-1,.21l-3.81-2.43a2.46,2.46,0,0,1-.44-.34.68.68,0,0,1,.2-1.19,1.7,1.7,0,0,1,.46-.08l3.89-.2v0c.26,0,.51,0,.77,0A.78.78,0,0,1,749.58,491.82Z" transform="translate(-240.02 -467.94)"/><path class="cls-1" d="M364.5,528.78l-1.19,3.28H361.9v-3.28Z" transform="translate(-240.02 -467.94)"/></svg>