<svg id="Layer_1" data-name="Layer 1" xmlns="http://www.w3.org/2000/svg" viewBox="0 0 645.27 79.58"><defs><style>.cls-1{fill:#ce1920;}</style></defs><path class="cls-1" d="M232.29,539.14H227l-2.31-3.41h-6.12l-.56,3.41h-4l1.09-6.59h11.2a3.34,3.34,0,0,0,1.62-.38,1.45,1.45,0,0,0,.81-1.06,1.06,1.06,0,0,0-.39-1.13,2.63,2.63,0,0,0-1.55-.37H215.55l3.15-3.35H227a12.35,12.35,0,0,1,2.24.2,5.84,5.84,0,0,1,2,.72,3.66,3.66,0,0,1,1.35,1.41,3.45,3.45,0,0,1,.25,2.27,4.73,4.73,0,0,1-.46,1.42,5,5,0,0,1-.87,1.22,5.2,5.2,0,0,1-1.2.91,5,5,0,0,1-1.51.53q.28.25.63.63c.23.26.53.61.9,1.06Z" transform="translate(-177.36 -460.21)"/><path class="cls-1" d="M251.14,535.82,248,539.14H235.64l2.12-12.88h14.92l-3.13,3.35h-8.34l-.25,1.54h10.2l-2.77,2.92h-7.91l-.29,1.75Z" transform="translate(-177.36 -460.21)"/><path class="cls-1" d="M266.9,539.35a2.06,2.06,0,0,1-.74-.13,1.86,1.86,0,0,1-.74-.57l-6.73-7.08-1.24,7.57h-3.62l1.76-10.69a3.47,3.47,0,0,1,.36-1.1,3.07,3.07,0,0,1,.61-.75,2.27,2.27,0,0,1,.76-.42,2.72,2.72,0,0,1,.84-.13,2.27,2.27,0,0,1,.72.12,1.91,1.91,0,0,1,.76.57l6.73,7.08,1.25-7.56h3.63l-1.75,10.66a3.17,3.17,0,0,1-.37,1.1,2.73,2.73,0,0,1-.6.76,2.22,2.22,0,0,1-.78.43A2.8,2.8,0,0,1,266.9,539.35Z" transform="translate(-177.36 -460.21)"/><path class="cls-1" d="M291.52,526.26l-3.13,3.35h-4.6l-1.57,9.53h-4l1.57-9.53h-6.05l3.13-3.35Z" transform="translate(-177.36 -460.21)"/><path class="cls-1" d="M293.92,539.14l3-3.32h4.43c.42,0,.78,0,1.08,0q-.21-.35-.48-.87c-.18-.36-.35-.69-.52-1l-1.75-3.41-7.45,8.55h-4.71l10.17-11.65a5.84,5.84,0,0,1,1.19-1,2.9,2.9,0,0,1,1.63-.44,2.26,2.26,0,0,1,1.44.41,3.06,3.06,0,0,1,.86,1l6.13,11.65Z" transform="translate(-177.36 -460.21)"/><path class="cls-1" d="M326.75,535.82l-3.12,3.32H312.25l2.12-12.88h4l-1.58,9.56Z" transform="translate(-177.36 -460.21)"/><path class="cls-1" d="M364.4,526.26l-3.13,3.35h-4.6l-1.57,9.53h-4l1.58-9.53h-6.05l3.13-3.35Z" transform="translate(-177.36 -460.21)"/><path class="cls-1" d="M382.39,539.14h-5.33l-2.3-3.41h-6.13l-.56,3.41h-4l1.08-6.59h11.21a3.4,3.4,0,0,0,1.62-.38,1.5,1.5,0,0,0,.81-1.06,1.08,1.08,0,0,0-.39-1.13,2.68,2.68,0,0,0-1.56-.37h-11.2l3.15-3.35h8.28a12.43,12.43,0,0,1,2.24.2,5.72,5.72,0,0,1,2,.72,3.61,3.61,0,0,1,1.36,1.41,3.51,3.51,0,0,1,.25,2.27,5.09,5.09,0,0,1-1.33,2.64,5.26,5.26,0,0,1-1.21.91,5,5,0,0,1-1.5.53q.29.25.63.63l.9,1.06Z" transform="translate(-177.36 -460.21)"/><path class="cls-1" d="M391.19,539.14l2.95-3.32h4.44c.42,0,.78,0,1.08,0q-.21-.35-.48-.87c-.18-.36-.35-.69-.52-1l-1.75-3.41-7.45,8.55h-4.72l10.18-11.65a5.58,5.58,0,0,1,1.19-1,2.88,2.88,0,0,1,1.63-.44,2.28,2.28,0,0,1,1.44.41,3.06,3.06,0,0,1,.86,1l6.13,11.65Z" transform="translate(-177.36 -460.21)"/><path class="cls-1" d="M422.53,539.35a2.1,2.1,0,0,1-.74-.13,1.86,1.86,0,0,1-.74-.57l-6.73-7.08-1.24,7.57h-3.62l1.76-10.69a3.47,3.47,0,0,1,.36-1.1,3.07,3.07,0,0,1,.61-.75,2.27,2.27,0,0,1,.76-.42,2.72,2.72,0,0,1,.84-.13,2.18,2.18,0,0,1,.72.12,2,2,0,0,1,.77.57l6.72,7.08,1.25-7.56h3.63l-1.75,10.66a3.17,3.17,0,0,1-.37,1.1,2.73,2.73,0,0,1-.6.76,2.22,2.22,0,0,1-.78.43A2.8,2.8,0,0,1,422.53,539.35Z" transform="translate(-177.36 -460.21)"/><path class="cls-1" d="M442.25,531.4a5.52,5.52,0,0,1,3.45.87,2.61,2.61,0,0,1,.8,2.65,5.61,5.61,0,0,1-.6,1.77,4.13,4.13,0,0,1-1.2,1.33,5.9,5.9,0,0,1-1.86.83,10.25,10.25,0,0,1-2.56.29h-12l3.11-3.32h9.74a2.12,2.12,0,0,0,1.08-.22,1,1,0,0,0,.44-.72.65.65,0,0,0-.21-.71,1.77,1.77,0,0,0-1-.21h-7a7.12,7.12,0,0,1-2.11-.27,3.64,3.64,0,0,1-1.38-.75,2.41,2.41,0,0,1-.69-1.17,3.61,3.61,0,0,1,0-1.51,4.73,4.73,0,0,1,.59-1.64,4,4,0,0,1,1.19-1.27,5.88,5.88,0,0,1,1.84-.8,9.86,9.86,0,0,1,2.56-.29h11.19l-3.11,3.35h-8.94a2.34,2.34,0,0,0-1.06.19.92.92,0,0,0-.45.69.64.64,0,0,0,.22.7,1.82,1.82,0,0,0,1,.21Z" transform="translate(-177.36 -460.21)"/><path class="cls-1" d="M467.82,531.09a5,5,0,0,1-2.23,3.44,7.3,7.3,0,0,1-2.15,1,10.18,10.18,0,0,1-2.74.34H454l-.55,3.3h-4l1.08-6.59h11.09a2.54,2.54,0,0,0,1.5-.4,1.56,1.56,0,0,0,.69-1.08,1.12,1.12,0,0,0-.33-1.07,2.05,2.05,0,0,0-1.37-.39H451l3.19-3.35h8.08a8.89,8.89,0,0,1,2.62.35,5,5,0,0,1,1.82,1,3.39,3.39,0,0,1,1,1.53A4.11,4.11,0,0,1,467.82,531.09Z" transform="translate(-177.36 -460.21)"/><path class="cls-1" d="M481.61,526.05q4.69,0,6.79,1.59t1.53,5.05a6.94,6.94,0,0,1-3.19,5.06,14.11,14.11,0,0,1-7.33,1.6c-3.15,0-5.42-.54-6.81-1.6s-1.88-2.75-1.5-5.06a6.9,6.9,0,0,1,3.18-5.05A14.12,14.12,0,0,1,481.61,526.05ZM480,536a20.81,20.81,0,0,0,2.56-.13,5,5,0,0,0,1.76-.49,2.69,2.69,0,0,0,1.1-1,4.48,4.48,0,0,0,.57-1.68,4.1,4.1,0,0,0,0-1.69,1.67,1.67,0,0,0-.77-1,4,4,0,0,0-1.6-.48,21.91,21.91,0,0,0-2.53-.13,23,23,0,0,0-2.56.13,5.18,5.18,0,0,0-1.76.48,2.67,2.67,0,0,0-1.1,1,4.85,4.85,0,0,0-.57,1.69,4.05,4.05,0,0,0,0,1.68,1.73,1.73,0,0,0,.77,1,3.83,3.83,0,0,0,1.61.49A19.8,19.8,0,0,0,480,536Z" transform="translate(-177.36 -460.21)"/><path class="cls-1" d="M511.08,539.14h-5.34l-2.3-3.41h-6.12l-.57,3.41h-4l1.08-6.59h11.21a3.37,3.37,0,0,0,1.62-.38,1.45,1.45,0,0,0,.81-1.06,1.08,1.08,0,0,0-.39-1.13,2.66,2.66,0,0,0-1.56-.37h-11.2l3.15-3.35h8.28a12.35,12.35,0,0,1,2.24.2,5.72,5.72,0,0,1,2,.72,3.61,3.61,0,0,1,1.36,1.41,3.51,3.51,0,0,1,.25,2.27,4.9,4.9,0,0,1-1.33,2.64,5.26,5.26,0,0,1-1.21.91,5,5,0,0,1-1.5.53q.29.25.63.63c.22.26.53.61.9,1.06Z" transform="translate(-177.36 -460.21)"/><path class="cls-1" d="M532.54,526.26l-3.13,3.35h-4.6l-1.57,9.53h-4l1.57-9.53h-6.05l3.13-3.35Z" transform="translate(-177.36 -460.21)"/><path class="cls-1" d="M553.71,539.14l2.95-3.32h4.44c.42,0,.78,0,1.08,0q-.21-.35-.48-.87c-.18-.36-.35-.69-.52-1l-1.75-3.41L552,539.14h-4.72l10.18-11.65a5.58,5.58,0,0,1,1.19-1,2.9,2.9,0,0,1,1.63-.44,2.28,2.28,0,0,1,1.44.41,3.06,3.06,0,0,1,.86,1l6.13,11.65Z" transform="translate(-177.36 -460.21)"/><path class="cls-1" d="M585.06,539.35a2.11,2.11,0,0,1-.75-.13,1.86,1.86,0,0,1-.74-.57l-6.72-7.08-1.25,7.57H572l1.76-10.69a3.47,3.47,0,0,1,.36-1.1,3.07,3.07,0,0,1,.61-.75,2.37,2.37,0,0,1,.76-.42,2.72,2.72,0,0,1,.84-.13,2.18,2.18,0,0,1,.72.12,1.93,1.93,0,0,1,.77.57l6.72,7.08,1.25-7.56h3.64l-1.76,10.66a3.39,3.39,0,0,1-.36,1.1,3,3,0,0,1-.61.76,2.13,2.13,0,0,1-.78.43A2.74,2.74,0,0,1,585.06,539.35Z" transform="translate(-177.36 -460.21)"/><path class="cls-1" d="M609,532.57a6.54,6.54,0,0,1-1,2.61,8.06,8.06,0,0,1-2,2.08,9.28,9.28,0,0,1-2.68,1.37,9.81,9.81,0,0,1-3.18.51h-8.62l1.32-8h4l-.77,4.71h4.62a5.3,5.3,0,0,0,1.56-.22,4.18,4.18,0,0,0,1.31-.62,3.85,3.85,0,0,0,.95-1,3.18,3.18,0,0,0,.5-1.26,2.61,2.61,0,0,0-.09-1.25,2.39,2.39,0,0,0-.64-1,3.36,3.36,0,0,0-1.11-.65,4.18,4.18,0,0,0-1.46-.24h-8.62l3.09-3.35h6.08a9.35,9.35,0,0,1,3.05.46,6.24,6.24,0,0,1,2.24,1.3,4.7,4.7,0,0,1,1.27,2A5.28,5.28,0,0,1,609,532.57Z" transform="translate(-177.36 -460.21)"/><path class="cls-1" d="M626.63,539.14l3-3.32H634c.42,0,.78,0,1.08,0q-.21-.35-.48-.87c-.18-.36-.35-.69-.52-1l-1.75-3.41-7.45,8.55h-4.72l10.18-11.65a5.78,5.78,0,0,1,1.18-1,2.94,2.94,0,0,1,1.64-.44,2.28,2.28,0,0,1,1.44.41,3.18,3.18,0,0,1,.86,1l6.13,11.65Z" transform="translate(-177.36 -460.21)"/><path class="cls-1" d="M658.17,531.4a5.52,5.52,0,0,1,3.45.87,2.61,2.61,0,0,1,.8,2.65,5.61,5.61,0,0,1-.6,1.77,4.13,4.13,0,0,1-1.2,1.33,5.9,5.9,0,0,1-1.86.83,10.31,10.31,0,0,1-2.56.29h-12l3.11-3.32h9.74a2.12,2.12,0,0,0,1.08-.22,1,1,0,0,0,.44-.72.65.65,0,0,0-.21-.71,1.77,1.77,0,0,0-1-.21h-7a7.12,7.12,0,0,1-2.11-.27,3.64,3.64,0,0,1-1.38-.75,2.41,2.41,0,0,1-.69-1.17,3.61,3.61,0,0,1,0-1.51,4.53,4.53,0,0,1,.59-1.64,4,4,0,0,1,1.19-1.27,5.88,5.88,0,0,1,1.84-.8,9.81,9.81,0,0,1,2.56-.29H663.5l-3.11,3.35h-8.94a2.34,2.34,0,0,0-1.06.19.92.92,0,0,0-.45.69.64.64,0,0,0,.22.7,1.82,1.82,0,0,0,1,.21Z" transform="translate(-177.36 -460.21)"/><path class="cls-1" d="M678.63,531.4a5.5,5.5,0,0,1,3.45.87,2.61,2.61,0,0,1,.8,2.65,5.61,5.61,0,0,1-.6,1.77,3.91,3.91,0,0,1-1.2,1.33,5.9,5.9,0,0,1-1.86.83,10.25,10.25,0,0,1-2.56.29h-12l3.1-3.32h9.74a2.08,2.08,0,0,0,1.08-.22,1,1,0,0,0,.44-.72.65.65,0,0,0-.21-.71,1.77,1.77,0,0,0-1-.21h-7a7.17,7.17,0,0,1-2.11-.27,3.64,3.64,0,0,1-1.38-.75,2.41,2.41,0,0,1-.69-1.17,3.61,3.61,0,0,1,0-1.51,4.73,4.73,0,0,1,.59-1.64,4,4,0,0,1,1.19-1.27,5.94,5.94,0,0,1,1.85-.8,9.75,9.75,0,0,1,2.56-.29H684l-3.11,3.35h-8.93a2.35,2.35,0,0,0-1.07.19.92.92,0,0,0-.45.69.64.64,0,0,0,.22.7,1.84,1.84,0,0,0,1,.21Z" transform="translate(-177.36 -460.21)"/><path class="cls-1" d="M701.38,535.82l-3.1,3.32h-12.4L688,526.26h14.92l-3.13,3.35h-8.34l-.25,1.54h10.2l-2.77,2.92h-7.91l-.29,1.75Z" transform="translate(-177.36 -460.21)"/><path class="cls-1" d="M714.35,531.05l.53,1.32c.15.38.28.71.39,1s.21.56.29.81l.24.71c.14-.23.29-.46.45-.7l.56-.81.72-1,1-1.31,2.66-3.66a3.89,3.89,0,0,1,1-1,2.5,2.5,0,0,1,1.38-.37,1.84,1.84,0,0,1,1.94,1.77l1.39,11.32h-4l-.47-4.49c-.08-.73-.15-1.37-.2-1.92s-.08-1.1-.1-1.62l-1,1.49c-.36.55-.82,1.24-1.4,2.07l-2.26,3.23a4.37,4.37,0,0,1-.64.76,2.87,2.87,0,0,1-.6.44,2,2,0,0,1-.61.2,4.83,4.83,0,0,1-.68.05,4.47,4.47,0,0,1-.67-.05,1.4,1.4,0,0,1-.54-.2,1.73,1.73,0,0,1-.46-.44,3,3,0,0,1-.39-.76l-1.19-3.25-.42-1.17-.34-.94c-.1-.27-.19-.53-.26-.76l-.21-.67c-.18.51-.39,1-.63,1.61s-.5,1.2-.82,1.93l-1.95,4.49H703.2l5.2-11.32a3,3,0,0,1,1.11-1.34,2.6,2.6,0,0,1,1.43-.43,2,2,0,0,1,1.24.36,2.31,2.31,0,0,1,.71,1Z" transform="translate(-177.36 -460.21)"/><path class="cls-1" d="M745.91,532.51a2.27,2.27,0,0,1,1.27,1,2.54,2.54,0,0,1,.28,1.88,4.84,4.84,0,0,1-.49,1.49,3.7,3.7,0,0,1-1.05,1.19,5.4,5.4,0,0,1-1.74.79,10,10,0,0,1-2.57.29H730.29l1.29-7.84H743a1.86,1.86,0,0,0,.82-.18.85.85,0,0,0,.44-.69.55.55,0,0,0-.23-.65,1.51,1.51,0,0,0-.75-.17H731.86l3.24-3.35h8.53a8.42,8.42,0,0,1,2,.22,4,4,0,0,1,1.49.67,2.56,2.56,0,0,1,.84,1.12,3,3,0,0,1,.1,1.55,3.49,3.49,0,0,1-.32,1,4.45,4.45,0,0,1-.53.78,3.11,3.11,0,0,1-.65.56A3.16,3.16,0,0,1,745.91,532.51Zm-10.78,1.54-.29,1.77h7.33a1.63,1.63,0,0,0,1-.23,1,1,0,0,0,.4-.67.66.66,0,0,0-.18-.65,1.45,1.45,0,0,0-.91-.22Z" transform="translate(-177.36 -460.21)"/><path class="cls-1" d="M765.27,535.82l-3.12,3.32H750.77l2.12-12.88h4l-1.58,9.56Z" transform="translate(-177.36 -460.21)"/><path class="cls-1" d="M783.83,526.26l-9.07,8.62-.7,4.26h-4l.7-4.28-6.43-8.6h5.12l2.49,3.58.33.45.42.59.4.57a3.92,3.92,0,0,1,.26.41l.68-.73c.3-.31.72-.75,1.28-1.31l3.51-3.56Z" transform="translate(-177.36 -460.21)"/><path class="cls-1" d="M248.91,514.78H228.07l-9.18-13.32H195l-2,13.32H177.36l3.92-25.73h43.78a12.88,12.88,0,0,0,6.33-1.5,5.66,5.66,0,0,0,3.11-4.14,4.21,4.21,0,0,0-1.59-4.4q-2-1.47-6.1-1.47H183l12.15-13.09h32.35a49.85,49.85,0,0,1,8.75.79,23.71,23.71,0,0,1,7.92,2.82,14.39,14.39,0,0,1,5.38,5.49c1.27,2.31,1.64,5.27,1.09,8.88a19,19,0,0,1-5.07,10.31,19.33,19.33,0,0,1-4.68,3.57,19.6,19.6,0,0,1-5.84,2.07,28.85,28.85,0,0,1,2.48,2.48c.9,1,2.09,2.38,3.58,4.14Z" transform="translate(-177.36 -460.21)"/><path class="cls-1" d="M323.19,492.81q-3.46,22.8-34.84,22.8a71.44,71.44,0,0,1-15.43-1.43,26.45,26.45,0,0,1-10.14-4.29,14.06,14.06,0,0,1-5.16-7.11,22,22,0,0,1-.48-10l4.32-28.36H277l-4.31,28.36a12.22,12.22,0,0,0,0,4.67,4.91,4.91,0,0,0,2.36,3,14.5,14.5,0,0,0,5.58,1.66,76,76,0,0,0,9.7.49,46.42,46.42,0,0,0,7.61-.53,14.5,14.5,0,0,0,5.07-1.73,8.55,8.55,0,0,0,3.07-3.08,13,13,0,0,0,1.48-4.52l4.31-28.36h15.65Z" transform="translate(-177.36 -460.21)"/><path class="cls-1" d="M389.39,488.9a9,9,0,0,1,5,3.84,10.3,10.3,0,0,1,1.17,7.37,18.7,18.7,0,0,1-1.86,5.83,13.47,13.47,0,0,1-4,4.63,20.12,20.12,0,0,1-6.75,3.08,38.65,38.65,0,0,1-10.06,1.13H328.65l4.66-30.62h44.54a7,7,0,0,0,3.15-.71,3.33,3.33,0,0,0,1.73-2.67,2.21,2.21,0,0,0-1-2.56,6,6,0,0,0-2.9-.68H334.32l12.52-13.09h33.33a33.53,33.53,0,0,1,8,.87A15.57,15.57,0,0,1,394,468a9.83,9.83,0,0,1,3.33,4.36,11.86,11.86,0,0,1,.47,6.06,13.27,13.27,0,0,1-1.21,4,14.4,14.4,0,0,1-2,3,10.93,10.93,0,0,1-2.51,2.18A12.34,12.34,0,0,1,389.39,488.9Zm-42.07,6-1.05,6.92h28.66a6.64,6.64,0,0,0,3.83-.9,3.8,3.8,0,0,0,1.53-2.64,2.61,2.61,0,0,0-.75-2.52,5.55,5.55,0,0,0-3.55-.86Z" transform="translate(-177.36 -460.21)"/><path class="cls-1" d="M461.6,501.84l-12,12.94H401.18l7.65-50.33h58.31l-12.08,13.09H422.49l-.92,6h39.88L450.75,495H419.83l-1,6.85Z" transform="translate(-177.36 -460.21)"/><path class="cls-1" d="M536.37,514.78H515.53l-9.19-13.32H482.42l-2,13.32H464.82l3.92-25.73h43.78a12.81,12.81,0,0,0,6.32-1.5,5.65,5.65,0,0,0,3.12-4.14,4.23,4.23,0,0,0-1.59-4.4q-2-1.47-6.1-1.47H470.49l12.14-13.09H515a50,50,0,0,1,8.76.79,23.71,23.71,0,0,1,7.92,2.82,14.44,14.44,0,0,1,5.37,5.49q1.92,3.46,1.1,8.88a18.93,18.93,0,0,1-1.75,5.57,19,19,0,0,1-8,8.31,19.6,19.6,0,0,1-5.84,2.07,28.85,28.85,0,0,1,2.48,2.48c.9,1,2.09,2.38,3.58,4.14Z" transform="translate(-177.36 -460.21)"/><path d="M554.93,464.45l-12.07,13.09h23.62l-5.67,37.25h15.57l4-26-4.3-.55a4.61,4.61,0,0,1,0-9.14l5.89-.75.12-.82h5.68a5.46,5.46,0,0,1-.07-.83,4.61,4.61,0,0,1,4-4.56l15.12-1.94,5.31-5.76Z" transform="translate(-177.36 -460.21)"/><path class="cls-1" d="M721.23,483.67c0-.11,0-.23,0-.34h-3.46l-11,11.21h26l-1.11,7.3h-19a18.45,18.45,0,0,1-5.82-.86,12.11,12.11,0,0,1-4.32-2.45,8.75,8.75,0,0,1-2.51-3.8,10.4,10.4,0,0,1-.34-4.92,12.27,12.27,0,0,1,1.88-4.94,15.28,15.28,0,0,1,3.71-3.87,17.15,17.15,0,0,1,5.09-2.56,19.81,19.81,0,0,1,6-.9H737a4.41,4.41,0,0,1-.08-.83,4.62,4.62,0,0,1,4-4.56l7.22-.92,6.25-6.78h-36A42.44,42.44,0,0,0,706,466.22a34.73,34.73,0,0,0-10.37,5,29.37,29.37,0,0,0-7.5,7.83,24.9,24.9,0,0,0-3.83,10,21.46,21.46,0,0,0,.75,10.19,20.2,20.2,0,0,0,5.08,8.12,24.65,24.65,0,0,0,8.78,5.39,33.78,33.78,0,0,0,11.81,2h34.54l3.57-23.51-23.54-3A4.61,4.61,0,0,1,721.23,483.67Z" transform="translate(-177.36 -460.21)"/><path d="M622.4,502.58l-18.85-3.82,15.57-3.31-1-6.42-41.51-5.35,33-4.22V479l-17.38-2.26,30.19-3.88c11.63-16.16,31.29-15.63,42.33-5.09a27.57,27.57,0,0,1,.1,40C653.05,518.91,633.24,518.19,622.4,502.58Zm3.93-15a19.56,19.56,0,1,0,19.74-19.31A19.25,19.25,0,0,0,626.33,487.56Z" transform="translate(-177.36 -460.21)"/><path class="cls-1" d="M771.62,502.58l-18.85-3.82,15.57-3.31-1-6.42-41.52-5.35,33-4.22V479l-17.38-2.26,30.19-3.88c11.63-16.16,31.29-15.63,42.33-5.09a27.57,27.57,0,0,1,.1,40C802.27,518.91,782.46,518.19,771.62,502.58Zm3.93-15a19.56,19.56,0,1,0,19.74-19.31A19.24,19.24,0,0,0,775.55,487.56Z" transform="translate(-177.36 -460.21)"/><path class="cls-1" d="M646.28,470.11a17.77,17.77,0,1,0,17.34,17.58A17.79,17.79,0,0,0,646.28,470.11Zm12,11.61a.85.85,0,0,1,1.2.41,20.42,20.42,0,0,1,.78,2.28c.13.42.18.86.27,1.28.17.91-.27,1.42-1.19,1.38l-2.42-.11v0l-3.35-.18a1,1,0,0,1-1-.74.9.9,0,0,1,.48-1l4.84-3.14A2.58,2.58,0,0,1,658.24,481.72Zm-4.71-5.42a.77.77,0,0,1,1.22-.2c.66.53,1.29,1.11,1.91,1.7a10.48,10.48,0,0,1,.93,1.07,2.94,2.94,0,0,1,.25.56,1,1,0,0,1-.43.82l-1.24.67-4,2.06a2.47,2.47,0,0,1-.59.22.84.84,0,0,1-1-1.16c.28-.67.64-1.32,1-2l1.77-3.45A2.07,2.07,0,0,1,653.53,476.3Zm-5.68-3.05a20.8,20.8,0,0,1,2.06.4,12.9,12.9,0,0,1,1.58.56.92.92,0,0,1,.44,1.49l-3,4.79a2.15,2.15,0,0,1-.32.41.86.86,0,0,1-1.51-.31,2.2,2.2,0,0,1-.1-.57c-.08-1.68-.15-3.35-.22-5h0c0-.21,0-.42-.05-.63C646.66,473.59,647.09,473.15,647.85,473.25Zm.87,13.76a.81.81,0,1,1,1.53-.54.81.81,0,0,1-1.53.54Zm0,4.64a.81.81,0,0,1-1.14-.12.8.8,0,0,1,.11-1.14.81.81,0,0,1,1.14.12A.82.82,0,0,1,648.7,491.65Zm-2.81-8.39a.81.81,0,1,1,0,1.62.81.81,0,1,1,0-1.62Zm-5.47-9.11a14.67,14.67,0,0,1,3.24-.88,3.08,3.08,0,0,1,.53,0,.88.88,0,0,1,.89.91c0,.18,0,.35,0,.53h0c-.08,1.7-.15,3.39-.22,5.09a5.05,5.05,0,0,1-.08.68.85.85,0,0,1-.67.73.82.82,0,0,1-.89-.31c-.28-.36-.53-.74-.78-1.12-.86-1.34-1.72-2.68-2.55-4C639.41,475,639.63,474.48,640.42,474.15Zm3.71,16.39a.81.81,0,0,1-.84,1.39.81.81,0,0,1,.84-1.39Zm-1.33-3.28a.81.81,0,0,1-1.59-.32.81.81,0,1,1,1.59.32Zm-8.38-8.66a14.5,14.5,0,0,1,2.47-2.42c.57-.45,1-.39,1.41.21a2.46,2.46,0,0,1,.17.27q1.26,2.44,2.51,4.9a3.54,3.54,0,0,1,.23.53.9.9,0,0,1-.87,1.17,4.83,4.83,0,0,1-.64-.22l-4.86-2.49,0,0C633.76,479.93,633.69,479.53,634.42,478.6ZM632,483a5.16,5.16,0,0,1,.31-.77.93.93,0,0,1,1.37-.43c.31.16.6.35.9.54l4.21,2.75a.94.94,0,0,1,.47,1,1,1,0,0,1-1,.76l-3.4.19-2.52.09c-.72,0-1.08-.33-1.07-1.17A15.63,15.63,0,0,1,632,483Zm.46,10.87a1.74,1.74,0,0,1-.3-.61c-.28-1-.55-2-.8-3a1.9,1.9,0,0,1,0-.63.92.92,0,0,1,.94-.87h1.21a.17.17,0,0,0,0,.07l4.73.24c.1,0,.21,0,.31,0a.93.93,0,0,1,.74.67.81.81,0,0,1-.3.89c-.39.3-.81.56-1.22.83l-3.12,2c-.32.21-.65.41-1,.61A.8.8,0,0,1,632.43,493.84Zm5.08,6.05a3.6,3.6,0,0,1-.66-.3,13.54,13.54,0,0,1-2.68-2.72.88.88,0,0,1,.37-1.43c.67-.37,1.36-.72,2-1.07,1.11-.57,2.21-1.16,3.32-1.71a.85.85,0,0,1,1.27.41,1.06,1.06,0,0,1,0,.66,10.62,10.62,0,0,1-.6,1.28q-1.05,2.06-2.11,4.11A1.17,1.17,0,0,1,637.51,499.89Zm7.58,1.6a1,1,0,0,1-1.31,1.07c-1-.23-2.06-.52-3.1-.79l-.24-.09c-.81-.37-1.07-.91-.54-1.72l1.43-2.25,1.66-2.55a1.89,1.89,0,0,1,.34-.4.82.82,0,0,1,1.33.36,2.87,2.87,0,0,1,.16.92c.06,1.14.09,2.27.14,3.41,0,.58.07,1.15.11,1.73h0Zm-1.17-12.39h0a2.23,2.23,0,0,1,.17-2.62l.11-.12a2.13,2.13,0,0,1,2.12-.74,2.34,2.34,0,0,1,1.88,2,2.21,2.21,0,0,1-1,2.23A2.26,2.26,0,0,1,643.92,489.1Zm7.56,12.46a19.61,19.61,0,0,1-2.28.75,11.93,11.93,0,0,1-1.19.24,1,1,0,0,1-1.33-1.15c0-.21,0-.42,0-.62h0L647,496a5.82,5.82,0,0,1,.09-.73.88.88,0,0,1,1.6-.32c.25.34.48.69.71,1l2.55,4C652.34,500.73,652.23,501.24,651.48,501.56Zm6-4.56a15.89,15.89,0,0,1-2.56,2.56.94.94,0,0,1-1.59-.34c-.86-1.65-1.72-3.29-2.57-4.94a3.49,3.49,0,0,1-.22-.53.88.88,0,0,1,.22-1,.81.81,0,0,1,1-.17,5.91,5.91,0,0,1,.8.39l4,2.05c.3.15.58.33.87.49a1,1,0,0,1,.42.84A3,3,0,0,1,657.52,497Zm3-7.15a9.88,9.88,0,0,1-.27,1.44c-.17.66-.37,1.32-.58,2a1.78,1.78,0,0,1-.27.51.82.82,0,0,1-1.26.26l-4.73-3a4.62,4.62,0,0,1-.55-.41.85.85,0,0,1,.26-1.48,1.74,1.74,0,0,1,.56-.1l4.82-.25v0c.32,0,.63,0,1,0A1,1,0,0,1,660.51,489.85Z" transform="translate(-177.36 -460.21)"/><path class="cls-1" d="M795.5,470.11a17.77,17.77,0,1,0,17.34,17.58A17.79,17.79,0,0,0,795.5,470.11Zm12,11.61a.85.85,0,0,1,1.2.41,20.42,20.42,0,0,1,.78,2.28c.13.42.18.86.27,1.28.17.91-.27,1.42-1.19,1.38L806.1,487v0l-3.35-.18a1,1,0,0,1-1-.74.92.92,0,0,1,.49-1l4.84-3.14A2.58,2.58,0,0,1,807.46,481.72Zm-4.71-5.42a.77.77,0,0,1,1.22-.2c.66.53,1.29,1.11,1.91,1.7a10.48,10.48,0,0,1,.93,1.07,2.94,2.94,0,0,1,.25.56,1,1,0,0,1-.43.82l-1.25.67-4,2.06a2.47,2.47,0,0,1-.59.22.84.84,0,0,1-1-1.16c.28-.67.64-1.32,1-2l1.77-3.45A2.07,2.07,0,0,1,802.75,476.3Zm-5.68-3.05a20.8,20.8,0,0,1,2.06.4,12.2,12.2,0,0,1,1.57.56.92.92,0,0,1,.45,1.49l-3,4.79a2.15,2.15,0,0,1-.32.41.86.86,0,0,1-1.51-.31,2.2,2.2,0,0,1-.1-.57c-.08-1.68-.15-3.35-.22-5h0c0-.21-.05-.42-.05-.63C795.88,473.59,796.31,473.15,797.07,473.25Zm.87,13.76a.82.82,0,0,1,.49-1,.81.81,0,1,1-.49,1Zm0,4.64a.81.81,0,0,1-1.14-.12.8.8,0,0,1,.11-1.14.81.81,0,0,1,1.14.12A.82.82,0,0,1,797.92,491.65Zm-2.82-8.39a.81.81,0,0,1,0,1.62.81.81,0,0,1,0-1.62Zm-5.46-9.11a14.67,14.67,0,0,1,3.24-.88,3.08,3.08,0,0,1,.53,0,.88.88,0,0,1,.89.91c0,.18,0,.35,0,.53h0c-.08,1.7-.15,3.39-.23,5.09a5.05,5.05,0,0,1-.07.68.85.85,0,0,1-.67.73.82.82,0,0,1-.89-.31c-.28-.36-.53-.74-.78-1.12-.86-1.34-1.72-2.68-2.56-4C788.63,475,788.85,474.48,789.64,474.15Zm3.71,16.39a.81.81,0,0,1-.84,1.39.81.81,0,0,1,.84-1.39ZM792,487.26a.81.81,0,0,1-1.59-.32.81.81,0,1,1,1.59.32Zm-8.38-8.66a14.5,14.5,0,0,1,2.47-2.42c.57-.45,1-.39,1.41.21a2.46,2.46,0,0,1,.17.27q1.26,2.44,2.51,4.9a3.54,3.54,0,0,1,.23.53.9.9,0,0,1-.87,1.17,4.83,4.83,0,0,1-.64-.22l-4.86-2.49,0,0C783,479.93,782.91,479.53,783.64,478.6ZM781.19,483a4.27,4.27,0,0,1,.31-.77.93.93,0,0,1,1.37-.43c.31.16.6.35.9.54l4.21,2.75a.94.94,0,0,1,.47,1,1,1,0,0,1-1,.76l-3.4.19-2.52.09c-.72,0-1.08-.33-1.07-1.17A15.63,15.63,0,0,1,781.19,483Zm.46,10.87a2,2,0,0,1-.31-.61c-.28-1-.54-2-.79-3a1.9,1.9,0,0,1,0-.63.92.92,0,0,1,.94-.87h1.2v.07l4.73.24c.1,0,.21,0,.31,0a.93.93,0,0,1,.74.67.81.81,0,0,1-.3.89c-.39.3-.81.56-1.22.83l-3.12,2c-.32.21-.65.41-1,.61A.8.8,0,0,1,781.65,493.84Zm5.07,6.05a3.83,3.83,0,0,1-.65-.3,13.54,13.54,0,0,1-2.68-2.72.88.88,0,0,1,.37-1.43c.67-.37,1.36-.72,2-1.07,1.11-.57,2.2-1.16,3.32-1.71a.85.85,0,0,1,1.27.41,1.06,1.06,0,0,1,0,.66c-.17.44-.39.86-.6,1.28q-1,2.06-2.11,4.11A1.17,1.17,0,0,1,786.72,499.89Zm7.58,1.6a1,1,0,0,1-1.3,1.07c-1-.23-2.07-.52-3.1-.79l-.24-.09c-.81-.37-1.07-.91-.55-1.72s1-1.5,1.44-2.25,1.1-1.7,1.66-2.55a1.89,1.89,0,0,1,.34-.4.82.82,0,0,1,1.33.36,2.87,2.87,0,0,1,.16.92c.06,1.14.09,2.27.14,3.41,0,.58.07,1.15.11,1.73h0C794.3,501.28,794.31,501.39,794.3,501.49Zm-1.16-12.39h0a2.23,2.23,0,0,1,.17-2.62l.11-.12a2.13,2.13,0,0,1,2.12-.74,2.34,2.34,0,0,1,1.88,2,2.21,2.21,0,0,1-1,2.23A2.26,2.26,0,0,1,793.14,489.1Zm7.56,12.46a19.77,19.77,0,0,1-2.29.75,11.2,11.2,0,0,1-1.18.24,1,1,0,0,1-1.34-1.15c0-.21,0-.42.05-.62h0l.21-4.77a4.41,4.41,0,0,1,.09-.73.83.83,0,0,1,.69-.7.84.84,0,0,1,.91.38c.25.34.48.69.71,1l2.55,4C801.56,500.73,801.45,501.24,800.7,501.56Zm6-4.56a15.89,15.89,0,0,1-2.56,2.56.94.94,0,0,1-1.59-.34c-.87-1.65-1.72-3.29-2.58-4.94a4.87,4.87,0,0,1-.21-.53.88.88,0,0,1,.22-1,.81.81,0,0,1,1-.17,5.91,5.91,0,0,1,.8.39l4,2.05c.3.15.58.33.87.49a1,1,0,0,1,.42.84A3.57,3.57,0,0,1,806.74,497Zm3-7.15a11.43,11.43,0,0,1-.27,1.44c-.17.66-.38,1.32-.58,2a1.78,1.78,0,0,1-.27.51.83.83,0,0,1-1.27.26l-4.73-3a5.47,5.47,0,0,1-.54-.41.85.85,0,0,1,.26-1.48,1.74,1.74,0,0,1,.56-.1l4.82-.25v0c.32,0,.63,0,.95,0A1,1,0,0,1,809.73,489.85Z" transform="translate(-177.36 -460.21)"/><path class="cls-1" d="M331.85,535.72l-1.49,4.07h-1.74v-4.07Z" transform="translate(-177.36 -460.21)"/></svg>